<svg width="286" height="104" viewBox="0 0 286 104" fill="none" xmlns="http://www.w3.org/2000/svg">
<path fill-rule="evenodd" clip-rule="evenodd" d="M90.832 7.36481H74.0566V90.8326H90.7016H90.832V90.8319L100.686 90.7769C102.88 90.7397 104.851 90.2007 106.599 89.1599C108.346 88.1191 109.741 86.7252 110.782 84.9782C111.823 83.194 112.344 81.2239 112.344 79.068V63.0658C112.344 61.0214 111.842 59.1628 110.838 57.4901C109.834 55.7802 108.476 54.4235 106.766 53.4199C105.093 52.4162 103.233 51.933 101.188 51.9702L90.832 52.0255V46.7848H96.9488C97.1348 46.7848 97.2277 46.6919 97.2277 46.506V30.1693H108.662C108.848 30.1693 108.941 30.095 108.941 29.9463L108.886 23.6458C108.886 23.4599 108.811 23.367 108.662 23.367H97.2277V14.7247H108.662C108.811 14.7247 108.886 14.6504 108.886 14.5017V8.20116C108.886 8.05247 108.793 7.97813 108.607 7.97813H90.832V7.36481ZM151.4 47.3424C149.392 47.3424 147.552 46.8406 145.878 45.8369C144.242 44.7962 142.922 43.4394 141.918 41.7667C140.914 40.0568 140.412 38.1797 140.412 36.1353L140.468 18.4604C140.468 16.416 140.951 14.5574 141.918 12.8847C142.922 11.212 144.261 9.87386 145.934 8.87024C147.607 7.86662 149.43 7.36481 151.4 7.36481C153.408 7.36481 155.231 7.86662 156.867 8.87024C158.503 9.87386 159.804 11.212 160.771 12.8847C161.775 14.5574 162.277 16.416 162.277 18.4604L162.333 36.1353C162.333 38.1797 161.831 40.0568 160.827 41.7667C159.86 43.4394 158.54 44.7962 156.867 45.8369C155.231 46.8406 153.408 47.3424 151.4 47.3424ZM151.4 40.5958C152.516 40.5958 153.483 40.1498 154.301 39.2577C155.156 38.3284 155.584 37.2876 155.584 36.1353L155.528 18.4604C155.528 17.2337 155.138 16.193 154.357 15.338C153.576 14.4831 152.59 14.0556 151.4 14.0556C150.248 14.0556 149.262 14.4831 148.444 15.338C147.626 16.1558 147.217 17.1966 147.217 18.4604V36.1353C147.217 37.3619 147.626 38.4213 148.444 39.3134C149.262 40.1683 150.248 40.5958 151.4 40.5958ZM114.445 46.506C114.445 46.6919 114.519 46.7848 114.668 46.7848H120.971C121.12 46.7848 121.194 46.6919 121.194 46.506L121.25 30.1136H124.931C126.307 30.1136 127.46 30.6154 128.389 31.619C129.356 32.5854 129.84 33.7377 129.84 35.0759V46.6175C129.84 46.7291 129.914 46.7848 130.063 46.7848H136.366C136.552 46.7848 136.645 46.6919 136.645 46.506L136.589 35.0759C136.589 32.065 135.585 29.4445 133.577 27.2142C134.023 26.8425 134.525 26.2849 135.083 25.5415C135.641 24.7609 136.124 23.8316 136.533 22.7537C136.942 21.6385 137.147 20.3933 137.147 19.018C137.147 16.9364 136.645 15.0778 135.641 13.4423C134.637 11.7696 133.279 10.45 131.569 9.48356C129.895 8.47994 128.055 7.97813 126.047 7.97813H114.779C114.631 7.97813 114.556 8.05247 114.556 8.20116L114.445 46.506ZM126.047 23.4227H121.25V14.6689H126.047C127.237 14.6689 128.259 15.0964 129.115 15.9513C130.007 16.8063 130.453 17.8285 130.453 19.018C130.453 20.2446 130.007 21.2854 129.115 22.1403C128.222 22.9953 127.199 23.4227 126.047 23.4227ZM166.63 46.3945C166.63 46.6547 166.779 46.7848 167.076 46.7848H172.654C172.989 46.7848 173.156 46.6361 173.156 46.3388L172.765 26.2663L182.415 46.7848H187.324C187.51 46.7848 187.603 46.6733 187.603 46.4503L187.547 8.42418C187.547 8.12681 187.435 7.97813 187.212 7.97813H181.69C181.355 7.97813 181.188 8.12681 181.188 8.42418L181.467 29.9463L172.04 7.97813H167.02C166.723 7.97813 166.574 8.12681 166.574 8.42418L166.63 46.3945ZM198.026 46.7848C197.877 46.7848 197.803 46.6919 197.803 46.506V14.7247H190.551C190.366 14.7247 190.273 14.6318 190.273 14.4459L190.328 8.20116C190.328 8.05247 190.403 7.97813 190.551 7.97813H211.747C211.933 7.97813 212.026 8.05247 212.026 8.20116V14.4459C212.026 14.6318 211.952 14.7247 211.803 14.7247H204.496L204.552 46.506C204.552 46.6919 204.478 46.7848 204.329 46.7848H198.026ZM214.781 46.506C214.781 46.6919 214.856 46.7848 215.004 46.7848H233.021C233.17 46.7848 233.244 46.7105 233.244 46.5618V40.2055C233.244 40.0197 233.17 39.9267 233.021 39.9267H221.531V30.1693H233.021C233.17 30.1693 233.244 30.095 233.244 29.9463L233.188 23.6458C233.188 23.4971 233.114 23.4227 232.965 23.4227H221.531V14.7247H232.965C233.114 14.7247 233.188 14.6504 233.188 14.5017V8.25691C233.188 8.07106 233.114 7.97813 232.965 7.97813H215.06C214.911 7.97813 214.837 8.05247 214.837 8.20116L214.781 46.506ZM238.706 46.7848C238.409 46.7848 238.26 46.6547 238.26 46.3945L238.204 8.42418C238.204 8.12681 238.353 7.97813 238.65 7.97813H243.67L253.097 29.9463L252.818 8.42418C252.818 8.12681 252.986 7.97813 253.32 7.97813H258.842C259.065 7.97813 259.177 8.12681 259.177 8.42418L259.233 46.4503C259.233 46.6733 259.14 46.7848 258.954 46.7848H254.045L244.396 26.2663L244.786 46.3388C244.786 46.6361 244.619 46.7848 244.284 46.7848H238.706ZM264.078 46.506C264.078 46.6919 264.171 46.7848 264.357 46.7848L274.341 46.7291C276.535 46.6919 278.506 46.1529 280.254 45.1121C282.002 44.0713 283.396 42.6774 284.437 40.9304C285.479 39.1461 285.999 37.1761 285.999 35.0201V19.018C285.999 16.9735 285.497 15.115 284.493 13.4423C283.489 11.7324 282.132 10.3757 280.421 9.37205C278.748 8.36843 276.889 7.8852 274.843 7.92237L264.413 7.97813C264.264 7.97813 264.19 8.05247 264.19 8.20116L264.078 46.506ZM274.341 39.9267H270.883L270.939 14.6689L274.843 14.6132C276.033 14.576 277.056 15.0035 277.911 15.8956C278.804 16.7505 279.25 17.7727 279.25 18.9622V35.0201C279.25 36.3583 278.767 37.5106 277.8 38.4771C276.87 39.4435 275.717 39.9267 274.341 39.9267ZM97.2277 83.9745H100.686C102.062 83.9745 103.215 83.4913 104.144 82.5249C105.111 81.5584 105.595 80.4061 105.595 79.068V63.01C105.595 61.8205 105.148 60.7983 104.256 59.9434C103.401 59.0513 102.378 58.6238 101.188 58.661L97.2835 58.7167L97.2277 83.9745ZM116.732 90.5538C116.732 90.7397 116.807 90.8326 116.956 90.8326H134.972C135.121 90.8326 135.195 90.7583 135.195 90.6096V84.2533C135.195 84.0675 135.121 83.9745 134.972 83.9745H123.482V74.2171H134.972C135.121 74.2171 135.195 74.1428 135.195 73.9941L135.14 67.6936C135.14 67.5449 135.065 67.4706 134.916 67.4706H123.482V58.7725H134.916C135.065 58.7725 135.14 58.6982 135.14 58.5495V52.3047C135.14 52.1189 135.065 52.0259 134.916 52.0259H117.011C116.863 52.0259 116.788 52.1003 116.788 52.249L116.732 90.5538ZM146.403 90.8326C146.254 90.8326 146.161 90.7397 146.124 90.5538L138.426 52.249C138.389 52.1003 138.463 52.0259 138.649 52.0259H144.952C145.101 52.0259 145.194 52.1003 145.231 52.249L149.805 77.7855L154.267 52.249C154.305 52.1003 154.397 52.0259 154.546 52.0259H160.793C160.979 52.0259 161.054 52.1003 161.017 52.249L153.431 90.5538C153.393 90.7397 153.3 90.8326 153.152 90.8326H146.403ZM161.508 90.6096C161.508 90.7583 161.582 90.8326 161.731 90.8326H168.034C168.183 90.8326 168.257 90.7583 168.257 90.6096V84.3091C168.257 84.1604 168.183 84.0861 168.034 84.0861H161.731C161.582 84.0861 161.508 84.1604 161.508 84.3091V90.6096Z" fill="#EE5948"/>
<path d="M8.52449 92.6562L0 0H45.1482L44.2011 18.7817H21.9427L23.0477 36.9373H36.9395L35.9923 55.7189H23.9949L26.9942 97.8212L8.52449 92.6562Z" fill="white"/>
<path d="M87.0202 92.8047L95.4855 0H50.8075L49.8669 18.8118H73.6952L72.5978 36.9965L71.6572 55.8083L69.7761 78.2256L49.8669 83.5556L31.0552 78.8527L32.6228 98.605L49.8669 103.308L68.6787 97.978L87.0202 92.8047Z" fill="white"/>
</svg>
