<svg width="201" height="73" viewBox="0 0 201 73" fill="none" xmlns="http://www.w3.org/2000/svg">
<path fill-rule="evenodd" clip-rule="evenodd" d="M63.5798 5.15479H51.8379V63.5778H63.4929C63.4935 63.5778 63.4941 63.5778 63.4946 63.5778L63.4953 63.5778H63.5798V63.5773L70.4832 63.5387C72.0188 63.5127 73.3983 63.1355 74.6217 62.407C75.845 61.6785 76.821 60.7028 77.5498 59.48C78.2786 58.2311 78.643 56.8522 78.643 55.3431V44.1425C78.643 42.7115 78.2916 41.4106 77.5889 40.2398C76.8861 39.043 75.9361 38.0933 74.7388 37.3908C73.5675 36.6884 72.2661 36.3501 70.8346 36.3761L63.5798 36.4149V32.7467H67.8674C67.9975 32.7467 68.0626 32.6816 68.0626 32.5515V21.1167H76.0662C76.1964 21.1167 76.2614 21.0647 76.2614 20.9606L76.2224 16.5506C76.2224 16.4205 76.1703 16.3554 76.0662 16.3554H68.0626V10.3063H76.0662C76.1703 10.3063 76.2224 10.2543 76.2224 10.1502V5.74019C76.2224 5.63612 76.1573 5.58408 76.0272 5.58408H63.5798V5.15479ZM105.98 33.1369C104.575 33.1369 103.287 32.7857 102.115 32.0832C100.97 31.3547 100.046 30.4051 99.3433 29.2343C98.6405 28.0374 98.2892 26.7235 98.2892 25.2926L98.3282 12.9211C98.3282 11.4901 98.6666 10.1892 99.3433 9.01843C100.046 7.84763 100.983 6.91099 102.154 6.20851C103.326 5.50603 104.601 5.15479 105.98 5.15479C107.386 5.15479 108.661 5.50603 109.807 6.20851C110.952 6.91099 111.863 7.84763 112.54 9.01843C113.242 10.1892 113.594 11.4901 113.594 12.9211L113.633 25.2926C113.633 26.7235 113.281 28.0374 112.579 29.2343C111.902 30.4051 110.978 31.3547 109.807 32.0832C108.661 32.7857 107.386 33.1369 105.98 33.1369ZM105.98 28.4147C106.761 28.4147 107.438 28.1025 108.011 27.4781C108.609 26.8276 108.909 26.0991 108.909 25.2926L108.87 12.9211C108.87 12.0625 108.596 11.334 108.05 10.7356C107.503 10.1372 106.813 9.83799 105.98 9.83799C105.174 9.83799 104.484 10.1372 103.911 10.7356C103.339 11.308 103.052 12.0365 103.052 12.9211V25.2926C103.052 26.1512 103.339 26.8927 103.911 27.5171C104.484 28.1155 105.174 28.4147 105.98 28.4147ZM80.1135 32.5515C80.1135 32.6816 80.1656 32.7467 80.2697 32.7467H84.6814C84.7855 32.7467 84.8376 32.6816 84.8376 32.5515L84.8766 21.0777H87.4534C88.4165 21.0777 89.2233 21.4289 89.874 22.1314C90.5508 22.8079 90.8891 23.6144 90.8891 24.5511V32.6296C90.8891 32.7076 90.9412 32.7467 91.0453 32.7467H95.4571C95.5872 32.7467 95.6523 32.6816 95.6523 32.5515L95.6133 24.5511C95.6133 22.4436 94.9105 20.6094 93.505 19.0483C93.8173 18.7881 94.1687 18.3978 94.5591 17.8775C94.9495 17.3311 95.2879 16.6807 95.5742 15.9262C95.8605 15.1456 96.0037 14.274 96.0037 13.3114C96.0037 11.8544 95.6523 10.5535 94.9495 9.4087C94.2468 8.2379 93.2967 7.31426 92.0995 6.6378C90.9282 5.93532 89.6398 5.58408 88.2343 5.58408H80.3477C80.2436 5.58408 80.1916 5.63612 80.1916 5.74019L80.1135 32.5515ZM88.2343 16.3945H84.8766V10.2673H88.2343C89.0672 10.2673 89.7829 10.5665 90.3816 11.1649C91.0063 11.7633 91.3186 12.4788 91.3186 13.3114C91.3186 14.17 91.0063 14.8985 90.3816 15.4969C89.7569 16.0953 89.0411 16.3945 88.2343 16.3945ZM116.64 32.4735C116.64 32.6556 116.744 32.7467 116.953 32.7467H120.857C121.091 32.7467 121.208 32.6426 121.208 32.4345L120.935 18.3848L127.689 32.7467H131.125C131.255 32.7467 131.32 32.6686 131.32 32.5125L131.281 5.89629C131.281 5.68815 131.203 5.58408 131.047 5.58408H127.182C126.947 5.58408 126.83 5.68815 126.83 5.89629L127.025 20.9606L120.427 5.58408H116.914C116.705 5.58408 116.601 5.68815 116.601 5.89629L116.64 32.4735ZM138.616 32.7467C138.512 32.7467 138.46 32.6816 138.46 32.5515V10.3063H133.384C133.254 10.3063 133.189 10.2413 133.189 10.1112L133.228 5.74019C133.228 5.63612 133.28 5.58408 133.384 5.58408H148.22C148.35 5.58408 148.415 5.63612 148.415 5.74019V10.1112C148.415 10.2413 148.363 10.3063 148.259 10.3063H143.145L143.184 32.5515C143.184 32.6816 143.132 32.7467 143.028 32.7467H138.616ZM150.344 32.5515C150.344 32.6816 150.396 32.7467 150.5 32.7467H163.111C163.215 32.7467 163.267 32.6946 163.267 32.5906V28.1415C163.267 28.0114 163.215 27.9464 163.111 27.9464H155.068V21.1167H163.111C163.215 21.1167 163.267 21.0647 163.267 20.9606L163.228 16.5506C163.228 16.4465 163.176 16.3945 163.071 16.3945H155.068V10.3063H163.071C163.176 10.3063 163.228 10.2543 163.228 10.1502V5.77921C163.228 5.64912 163.176 5.58408 163.071 5.58408H150.539C150.435 5.58408 150.383 5.63612 150.383 5.74019L150.344 32.5515ZM167.09 32.7467C166.882 32.7467 166.777 32.6556 166.777 32.4735L166.738 5.89629C166.738 5.68815 166.843 5.58408 167.051 5.58408H170.565L177.163 20.9606L176.967 5.89629C176.967 5.68815 177.085 5.58408 177.319 5.58408H181.184C181.34 5.58408 181.418 5.68815 181.418 5.89629L181.457 32.5125C181.457 32.6686 181.392 32.7467 181.262 32.7467H177.826L171.072 18.3848L171.345 32.4345C171.345 32.6426 171.228 32.7467 170.994 32.7467H167.09ZM184.849 32.5515C184.849 32.6816 184.914 32.7467 185.044 32.7467L192.033 32.7076C193.568 32.6816 194.948 32.3044 196.171 31.5759C197.394 30.8474 198.37 29.8717 199.099 28.6489C199.828 27.4 200.192 26.0211 200.192 24.512V13.3114C200.192 11.8804 199.841 10.5795 199.138 9.4087C198.436 8.21188 197.485 7.26223 196.288 6.55975C195.117 5.85727 193.816 5.51904 192.384 5.54505L185.083 5.58408C184.979 5.58408 184.927 5.63612 184.927 5.74019L184.849 32.5515ZM192.033 27.9464H189.612L189.651 10.2673L192.384 10.2283C193.217 10.2022 193.933 10.5014 194.531 11.1259C195.156 11.7243 195.468 12.4398 195.468 13.2723V24.512C195.468 25.4487 195.13 26.2552 194.453 26.9317C193.802 27.6082 192.996 27.9464 192.033 27.9464ZM68.0626 58.7775H70.4832C71.4462 58.7775 72.2531 58.4392 72.9038 57.7628C73.5805 57.0863 73.9189 56.2798 73.9189 55.3431V44.1034C73.9189 43.2709 73.6066 42.5554 72.9819 41.957C72.3832 41.3325 71.6675 41.0333 70.8346 41.0594L68.1016 41.0984L68.0626 58.7775ZM81.7148 63.3826C81.7148 63.5127 81.7669 63.5778 81.871 63.5778H94.4816C94.5858 63.5778 94.6378 63.5257 94.6378 63.4216V58.9726C94.6378 58.8425 94.5858 58.7775 94.4816 58.7775H86.4389V51.9478H94.4816C94.5858 51.9478 94.6378 51.8958 94.6378 51.7917L94.5988 47.3817C94.5988 47.2776 94.5467 47.2256 94.4426 47.2256H86.4389V41.1374H94.4426C94.5467 41.1374 94.5988 41.0854 94.5988 40.9813V36.6103C94.5988 36.4802 94.5467 36.4152 94.4426 36.4152H81.91C81.8059 36.4152 81.7539 36.4672 81.7539 36.5713L81.7148 63.3826ZM102.482 63.5778C102.378 63.5778 102.313 63.5127 102.287 63.3826L96.8992 36.5713C96.8732 36.4672 96.9252 36.4152 97.0554 36.4152H101.467C101.571 36.4152 101.636 36.4672 101.662 36.5713L104.864 54.4455L107.987 36.5713C108.013 36.4672 108.078 36.4152 108.182 36.4152H112.555C112.685 36.4152 112.737 36.4672 112.711 36.5713L107.402 63.3826C107.376 63.5127 107.31 63.5778 107.206 63.5778H102.482ZM113.055 63.4216C113.055 63.5257 113.107 63.5778 113.212 63.5778H117.623C117.727 63.5778 117.779 63.5257 117.779 63.4216V59.0116C117.779 58.9076 117.727 58.8555 117.623 58.8555H113.212C113.107 58.8555 113.055 58.9076 113.055 59.0116V63.4216Z" fill="#EE5948"/>
<path d="M5.96669 64.8544L0 0H31.6014L30.9384 13.1462H15.3587L16.1322 25.8541H25.8557L25.1927 39.0003H16.7951L18.8945 68.4696L5.96669 64.8544Z" fill="white"/>
<path d="M60.9095 64.9583L66.8348 0H35.5626L34.9042 13.1672H51.5827L50.8146 25.8955L50.1563 39.0628L48.8395 54.7537L34.9042 58.4844L21.737 55.1926L22.8342 69.0182L34.9042 72.31L48.0714 68.5793L60.9095 64.9583Z" fill="white"/>
</svg>
