<svg width="124" height="140" viewBox="0 0 124 140" fill="none" xmlns="http://www.w3.org/2000/svg">
<path d="M124 0H0L11.3217 125.785L62 140L112.813 125.651L124 0Z" fill="#EE5948"/>
<path d="M29.9727 104.471L22.6436 25.2107H61.4609L60.6466 41.2769H41.5093L42.4594 56.8076H54.4032L53.5889 72.8738H43.2738L45.8526 108.889L29.9727 104.471Z" fill="#141414"/>
<path d="M93.9434 104.598L101.222 25.2107H62.8086L61.9999 41.3026H82.4869L81.5434 56.8582L80.7347 72.9502L79.1173 92.1264L61.9999 96.6858L45.826 92.6628L47.1739 109.559L61.9999 113.582L78.1739 109.023L93.9434 104.598Z" fill="#141414"/>
<path d="M112.543 10.4597H62V129.54L103.109 118.276L112.543 10.4597Z" fill="white" fill-opacity="0.2"/>
</svg>
