<svg width="1440" height="137" viewBox="0 0 1440 137" fill="none" xmlns="http://www.w3.org/2000/svg">
<g clip-path="url(#clip0_141_303)">
<path d="M1440 109.6L1440 68.5L1400 68.5L1400 123.3L1360 123.3L1360 109.6L1320 109.6L1320 95.9L1280 95.9L1280 41.1L1240 41.1L1240 54.8L1200 54.8L1200 137L1160 137L1160 109.6L1120 109.6L1120 41.1L1080 41.1L1080 68.5L1040 68.5L1040 123.3L1000 123.3L1000 82.2L960 82.2L960 109.6L920 109.6L880 109.6L880 95.9L840 95.8999L840 41.0999L800 41.0999L800 137L760 137L760 68.4999L720 68.4999L720 123.3L680 123.3L680 27.3999L640 27.3999L600 27.3999L600 13.6999L560 13.6999L560 41.0999L520 41.0999L480 41.0999L480 95.8999L440 95.8999L440 68.4999L400 68.4999L400 41.0999L360 41.0999L360 68.4999L320 68.4999L320 95.8999L280 95.8999L280 13.6999L240 13.6999L240 68.4999L200 68.4999L160 68.4999L160 82.1999L120 82.1999L120 54.7999L80 54.7999L80 109.6L40 109.6L40 13.6999L1.07792e-05 13.6999L1.19769e-05 -0.000125889L40 -0.000122392L80 -0.000118895L120 -0.000115398L160 -0.000111901L200 -0.000108404L240 -0.000104907L280 -0.00010141L320 -9.79135e-05L360 -9.44166e-05L400 -9.09197e-05L440 -8.74228e-05L480 -8.39259e-05L520 -8.0429e-05L560 -7.6932e-05L600 -7.34351e-05L640 -6.99382e-05L680 -6.64413e-05L720 -6.29444e-05L760 -5.94475e-05L800 -5.59506e-05L840 -5.24537e-05L880 -4.89568e-05L920 -4.54598e-05L960 -4.19629e-05L1000 -3.8466e-05L1040 -3.49691e-05L1080 -3.14722e-05L1120 -2.79753e-05L1160 -2.44784e-05L1200 -2.09815e-05L1240 -1.74846e-05L1280 -1.39876e-05L1320 -1.04907e-05L1360 -6.99382e-06L1400 -3.49691e-06L1440 0L1440 109.6Z" fill="#1F1E1B"/>
</g>
<defs>
<clipPath id="clip0_141_303">
<rect width="1440" height="137" fill="white" transform="translate(1440 137) rotate(-180)"/>
</clipPath>
</defs>
</svg>
