<svg width="1440" height="137" viewBox="0 0 1440 137" fill="none" xmlns="http://www.w3.org/2000/svg">
<g clip-path="url(#clip0_141_335)">
<path d="M4.79077e-06 27.4L1.19769e-05 68.5L40 68.5L40 13.7L80 13.7L80 27.4L120 27.4L120 41.1L160 41.1L160 95.9L200 95.9L200 82.2L240 82.2L240 -4.19629e-05L280 -4.89568e-05L280 27.4L320 27.3999L320 95.8999L360 95.8999L360 68.4999L400 68.4999L400 13.6999L440 13.6999L440 54.7999L480 54.7999L480 27.3999L520 27.3999L560 27.3999L560 41.0999L600 41.0999L600 95.8999L640 95.8999L640 -0.000111901L680 -0.000118895L680 68.4999L720 68.4999L720 13.6999L760 13.6999L760 109.6L800 109.6L840 109.6L840 123.3L880 123.3L880 95.8998L920 95.8998L960 95.8998L960 41.0998L1000 41.0998L1000 68.4998L1040 68.4998L1040 95.8998L1080 95.8998L1080 68.4998L1120 68.4998L1120 41.0998L1160 41.0998L1160 123.3L1200 123.3L1200 68.4998L1240 68.4998L1280 68.4998L1280 54.7998L1320 54.7998L1320 82.1998L1360 82.1998L1360 27.3998L1400 27.3998L1400 123.3L1440 123.3L1440 137L1400 137L1360 137L1320 137L1280 137L1240 137L1200 137L1160 137L1120 137L1080 137L1040 137L1000 137L960 137L920 137L880 137L840 137L800 137L760 137L720 137L680 137L640 137L600 137L560 137L520 137L480 137L440 137L400 137L360 137L320 137L280 137L240 137L200 137L160 137L120 137L80 137L40 137L2.39538e-05 137L4.79077e-06 27.4Z" fill="#1F1E1B"/>
</g>
<defs>
<clipPath id="clip0_141_335">
<rect width="1440" height="137" fill="white" transform="translate(0 0.000244141)"/>
</clipPath>
</defs>
</svg>
